<svg width="120" height="33" viewBox="0 0 120 33" fill="none" xmlns="http://www.w3.org/2000/svg">
<g clip-path="url(#clip0_10_41)">
<path d="M5.92272 23.6452L6.10939 23.9385C4.74939 25.3252 2.98939 26.2052 1.60272 26.2052C0.216052 26.2052 -0.263948 25.3252 0.136052 23.7518L2.77605 13.1652C3.30939 10.9252 3.17605 10.5252 1.89605 10.7118L1.94939 10.3385L7.60272 7.77849L3.70939 23.3518C3.52272 24.0185 3.68272 24.3918 4.10939 24.3918C4.53605 24.3918 4.98939 24.2052 5.92272 23.6452ZM22.8294 23.8852L22.6694 23.5918C21.9761 24.0185 21.3094 24.2852 20.8561 24.2852C20.4027 24.2852 20.2694 23.9652 20.4561 23.2985L23.2294 13.2718C24.1361 10.0185 23.2294 7.96516 20.8561 7.96516C18.8542 7.96516 16.5171 9.39582 13.8449 12.2564L14.9627 7.77849L9.30939 10.3385L9.22939 10.7118C10.5361 10.5252 10.6694 10.8718 10.1094 13.1652L6.90939 25.9385H10.4294L13.4161 13.9742C15.5657 11.6374 17.4763 10.3918 18.9361 10.3918C20.0827 10.3918 20.3227 11.2185 19.7627 13.2452L16.8827 23.9385C16.4827 25.4052 16.9361 26.2052 18.2161 26.2052C19.6027 26.2052 21.2827 25.3518 22.8294 23.8852ZM36.7227 24.4185C36.1894 24.4185 36.0827 24.1785 36.2694 23.3785L41.7894 0.285156L39.5201 1.01022C38.5638 0.54169 37.5099 0.285156 36.4561 0.285156C32.4179 0.285156 29.0246 3.46169 27.7934 8.23182H25.8161L25.4961 9.59182H27.507L24.2427 28.0985C23.8961 30.1252 23.3361 31.0318 22.4561 31.0318C21.2027 31.0318 21.4694 28.3652 19.5761 28.3652C18.6694 28.3652 18.0827 28.9785 18.0827 29.9118C18.0827 31.2718 19.4161 32.2852 21.1761 32.2852C24.7227 32.2852 27.2827 28.9252 28.5094 22.6318L31.075 9.59182H34.4027L34.7227 8.23182H31.3425L32.0561 4.60516C32.4294 2.76516 33.2294 1.88516 34.6427 1.88516C35.6342 1.88516 36.6041 2.36756 37.5587 3.34596L32.7494 23.6718C32.3761 25.3252 32.8561 26.2052 34.1094 26.2052C35.6027 26.2052 37.2827 25.3785 38.6694 23.9652L38.4827 23.6718C37.7627 24.1518 37.1227 24.4185 36.7227 24.4185ZM118.749 13.2718C119.656 10.0185 118.749 7.96516 116.376 7.96516C114.374 7.96516 112.037 9.39582 109.365 12.2564L110.483 7.77849L104.829 10.3385L104.749 10.7118C106.056 10.5252 106.189 10.8718 105.629 13.1652L102.429 25.9385H105.949L108.936 13.9742C111.086 11.6374 112.996 10.3918 114.456 10.3918C115.603 10.3918 115.843 11.2185 115.283 13.2452L112.403 23.9385C112.003 25.4052 112.456 26.2052 113.736 26.2052C115.123 26.2052 116.803 25.3518 118.349 23.8852L118.189 23.5918C117.496 24.0185 116.829 24.2852 116.376 24.2852C115.923 24.2852 115.789 23.9652 115.976 23.2985L118.749 13.2718ZM82.8561 24.3918C82.4294 24.3918 82.2694 24.0185 82.4561 23.3518L86.3494 7.77849L80.6961 10.3385L80.6427 10.7118C81.9227 10.5252 82.0561 10.9252 81.5227 13.1652L78.8827 23.7518C78.4827 25.3252 78.9894 26.2052 80.3494 26.2052C81.7094 26.2052 83.4961 25.3252 84.8561 23.9385L84.6694 23.6452C83.7361 24.2052 83.2827 24.3918 82.8561 24.3918ZM43.7611 17.6836C43.7446 17.954 43.7361 18.2257 43.7361 18.4985C43.7361 21.7252 45.0961 23.5385 47.4961 23.5385C49.7627 23.5385 51.6294 22.0452 53.2294 18.9785L53.5761 19.1652C52.1627 23.5652 49.3094 26.2052 45.9227 26.2052C42.5361 26.2052 39.9761 23.4052 39.9761 19.3785C39.9761 13.5652 44.8294 7.96516 49.8694 7.96516C52.4827 7.96516 54.2961 9.45849 54.2961 11.6185C54.2961 14.6345 50.8126 16.642 43.7611 17.6836ZM43.8771 16.5494C48.7206 15.7614 50.963 14.1798 50.963 11.5652C50.963 10.0452 50.243 9.16516 49.043 9.16516C46.6977 9.16516 44.4515 12.5556 43.8771 16.5494ZM102.349 15.3518C102.349 21.0585 97.8161 26.2052 92.8027 26.2052C88.9894 26.2052 86.2961 23.1385 86.2961 18.8185C86.2961 13.1118 90.8294 7.96516 95.8427 7.96516C99.6561 7.96516 102.349 11.0318 102.349 15.3518ZM98.7227 14.2585C98.7227 10.9785 97.6827 9.19182 95.7894 9.19182C92.7761 9.19182 89.9494 14.3652 89.9227 19.9118C89.9227 23.1918 90.9627 24.9785 92.8561 24.9785C95.8694 24.9785 98.7227 19.7785 98.7227 14.2585ZM64.5094 7.96516C59.3894 7.96516 54.5094 13.5118 54.5094 19.2985C54.5094 23.3785 57.0161 26.2052 60.6694 26.2052C64.1094 26.2052 66.6961 23.7518 68.0827 19.1652L67.7094 19.0052C66.3494 21.9118 64.5361 23.3785 62.2427 23.3785C59.6561 23.3785 58.2427 21.4852 58.2427 18.0185C58.2427 13.3785 61.0161 9.16516 64.0827 9.16516C67.4427 9.16516 64.1894 14.2052 67.4961 14.2052C68.6961 14.2052 69.4161 13.4052 69.4161 12.0185C69.4161 9.64516 67.3894 7.96516 64.5094 7.96516ZM74.4561 23.8852C73.2561 23.8852 72.8294 22.8718 73.2561 21.0585L76.127 9.59182H80.4294L80.7494 8.23182H76.4675L77.7361 3.16516H77.0161C75.2561 6.95182 73.2561 8.63182 69.8694 9.16516L69.7627 9.59182H72.7227L69.7894 21.2718C69.0427 24.2585 70.2161 26.2585 72.7227 26.2585C75.0961 26.2585 76.9361 24.3652 78.3494 20.4985L77.9761 20.3652C76.7494 22.8185 75.6827 23.8852 74.4561 23.8852ZM85.0961 6.84516C86.9075 6.84516 88.3761 5.37662 88.3761 3.56516C88.3761 1.75369 86.9078 0.285156 85.0961 0.285156C83.2843 0.285156 81.8161 1.75369 81.8161 3.56516C81.8161 5.37662 83.2846 6.84516 85.0961 6.84516ZM6.34939 6.84516C8.16085 6.84516 9.62939 5.37662 9.62939 3.56516C9.62939 1.75369 8.16112 0.285156 6.34939 0.285156C4.53765 0.285156 3.06939 1.75369 3.06939 3.56516C3.06939 5.37662 4.53792 6.84516 6.34939 6.84516Z" fill="#193223"/>
</g>
<defs>
<clipPath id="clip0_10_41">
<rect width="120" height="33" fill="white"/>
</clipPath>
</defs>
</svg>
