<svg width="86" height="36" viewBox="0 0 86 36" fill="none" xmlns="http://www.w3.org/2000/svg">
<g clip-path="url(#clip0_11_43)">
<path d="M-0.00140381 1.37203H2.54806L5.3044 9.62986C5.60292 10.4966 5.90139 11.8425 5.90139 11.8425C5.90139 11.8425 6.29209 10.5194 6.65955 9.62986L10.2426 1.21199H10.5411L14.1472 9.62986C14.5147 10.4966 14.8823 11.8425 14.8823 11.8425C14.8823 11.8425 15.2038 10.4966 15.5025 9.62986L18.2587 1.37203H20.6245L15.2268 17.0437H14.9283L11.0464 7.80486C10.7249 7.05177 10.4034 5.91143 10.4034 5.91143C10.4034 5.91143 10.0358 7.05177 9.7144 7.80486L5.74073 17.0437H5.44226L-0.00140381 1.37203ZM38.4458 1.21199H38.6981L46.1629 9.8807L53.5593 1.21199H53.8117V16.8836H51.4922V8.8313C51.4922 7.96442 51.5836 6.59589 51.5836 6.59589C51.5836 6.59589 50.8258 7.75908 50.1828 8.46624L46.2551 13.1656H45.9797L42.052 8.46624C41.4548 7.75908 40.6735 6.59589 40.6735 6.59589C40.6735 6.59589 40.7653 7.96442 40.7653 8.8313V16.8836H38.4458V1.21199ZM56.4292 1.37203H66.3518V3.49334H58.8639V9.5158H65.5018V11.5916H58.8639V14.7623H66.6736V16.8836H56.4292V1.37203ZM72.3228 7.82767C71.7029 7.16586 70.8529 6.09412 70.8529 6.09412C70.8529 6.09412 71.0142 7.37137 71.0142 8.32949V16.8836H68.7627V1.21199H69.0845L77.6977 10.4053C78.295 11.0439 79.1446 12.1389 79.1446 12.1389C79.1446 12.1389 78.9841 10.7702 78.9841 9.90352V1.37203H81.2348V17.0437H80.9364L72.3228 7.82767ZM15.2651 27.78C15.2651 24.365 12.8936 21.7976 9.52608 21.7976C6.15877 21.7976 3.76365 24.365 3.76365 27.78C3.76365 31.1952 6.15877 33.7624 9.52608 33.7624C12.8936 33.7624 15.2651 31.1952 15.2651 27.78ZM1.20238 27.78C1.20238 22.999 4.90174 19.5604 9.52608 19.5604C14.1267 19.5604 17.8262 22.999 17.8262 27.78C17.8262 32.5611 14.1267 35.9998 9.52608 35.9998C4.90174 35.9998 1.20238 32.5611 1.20238 27.78ZM17.7071 19.7724H20.3396L23.1854 28.298C23.4937 29.1934 23.8019 30.5827 23.8019 30.5827C23.8019 30.5827 24.2049 29.2168 24.5845 28.298L28.2839 19.6074H28.5922L32.3153 28.298C32.6948 29.1934 33.0741 30.5827 33.0741 30.5827C33.0741 30.5827 33.4063 29.1934 33.7144 28.298L36.56 19.7724H39.0029L33.4298 35.9528H33.1217L29.1139 26.4141C28.7821 25.6368 28.4497 24.4593 28.4497 24.4593C28.4497 24.4593 28.0705 25.6368 27.7385 26.4141L23.6359 35.9528H23.3276L17.7071 19.7724ZM44.1005 26.4377C43.4603 25.7548 42.5829 24.6479 42.5829 24.6479C42.5829 24.6479 42.7486 25.9667 42.7486 26.9557V35.7878H40.4248V19.6074H40.7566L49.6495 29.0989C50.2662 29.7584 51.1437 30.8888 51.1437 30.8888C51.1437 30.8888 50.9776 29.4758 50.9776 28.5809V19.7724H53.3014V35.9528H52.9935L44.1005 26.4377ZM56.0044 19.7724H66.2488V21.9626H58.5178V28.1806H65.3714V30.3237H58.5178V33.5974H66.581V35.7878H56.0044V19.7724ZM73.0067 33.5974C77.2046 33.5974 79.1728 31.1952 79.1728 27.78C79.1728 24.365 77.2046 21.9626 73.0067 21.9626H71.2518V33.5974H73.0067ZM68.7384 19.7724H73.1728C78.3427 19.7724 81.7812 22.9755 81.7812 27.78C81.7812 32.5845 78.3661 35.7878 73.1728 35.7878H68.7384V19.7724Z" fill="#1E231E"/>
<path d="M24.8165 7.41767C25.2454 7.57183 25.6819 7.8239 26.1139 8.16785C26.1313 8.14886 26.1482 8.13008 26.1643 8.11062C26.323 7.92544 26.4642 7.72626 26.5864 7.51555C26.7416 7.24899 26.8666 6.96164 26.9585 6.66118C26.99 6.56157 27.014 6.46137 27.0375 6.36057L27.0721 6.18526C27.0929 6.08119 27.1081 6.00273 27.1182 5.92257C27.1693 5.52701 27.1725 5.10673 27.1283 4.67244C27.0817 4.22505 26.9842 3.74976 26.838 3.25936C26.8184 3.19368 26.7863 3.12525 26.7382 3.04509C26.6109 2.83249 26.4104 2.676 26.1744 2.60493C25.9818 2.54805 25.8058 2.54636 25.6112 2.60157C25.4875 2.63813 25.3722 2.69865 25.2721 2.77964C25.172 2.86063 25.089 2.96049 25.0279 3.07347C24.9024 3.30391 24.8749 3.56834 24.95 3.81824C24.9761 3.9055 25.0004 3.99329 25.0228 4.08155C25.0475 4.17611 25.0695 4.27131 25.0889 4.36705C25.1035 4.43766 25.1169 4.5072 25.1276 4.57642C25.1383 4.63684 25.1477 4.70145 25.1561 4.76326C25.205 5.155 25.2006 5.50017 25.1415 5.81973C25.1136 5.96496 25.0784 6.09185 25.0346 6.21088C24.9922 6.32355 24.9407 6.43263 24.8806 6.53706C24.8077 6.66395 24.7207 6.78203 24.616 6.89703C24.5302 6.99182 24.4367 7.07938 24.3364 7.15881C24.3128 7.17778 24.2888 7.19633 24.2645 7.21446C24.357 7.24777 24.4451 7.27998 24.5281 7.31068L24.8165 7.41767ZM22.367 6.15428C23.0339 6.15428 23.5759 5.61549 23.5759 4.95305C23.5759 4.29072 23.0339 3.75193 22.367 3.75193C21.7002 3.75193 21.1577 4.29072 21.1577 4.95305C21.1577 5.61549 21.7002 6.15428 22.367 6.15428Z" fill="#1E231E"/>
<path d="M24.9616 11.1594C25.0346 11.2841 25.0946 11.4172 25.1432 11.5657C25.1824 11.6874 25.212 11.8119 25.2317 11.9381C25.2364 11.9677 25.2403 11.9976 25.2441 12.0276C25.3124 11.9703 25.3792 11.9163 25.4421 11.8647L25.6965 11.6553C26.0462 11.3624 26.4842 11.1133 27.0005 10.9141C26.9926 10.8894 26.9842 10.8649 26.9757 10.841C26.8928 10.6125 26.7899 10.3917 26.6682 10.181C26.5107 9.91197 26.3231 9.66142 26.1091 9.43413C26.0384 9.35828 25.9633 9.28704 25.8865 9.21628L25.7502 9.09725C25.6707 9.02881 25.6096 8.97656 25.5445 8.92798C25.2268 8.68719 24.862 8.47396 24.4592 8.29296C24.0472 8.11 23.5837 7.95644 23.0826 7.83681C23.02 7.82233 22.9521 7.81491 22.8687 7.81491C22.5963 7.81878 22.3597 7.91283 22.1798 8.07993C22.0332 8.2179 21.9423 8.37146 21.8957 8.56248C21.8352 8.81621 21.8773 9.0783 22.0151 9.30046C22.153 9.52368 22.3698 9.67937 22.6253 9.74011C22.7146 9.76116 22.8033 9.78415 22.8915 9.80906C22.9864 9.83539 23.0806 9.86417 23.174 9.89537C23.2421 9.91749 23.3096 9.94129 23.3765 9.96677C23.4359 9.98884 23.4949 10.012 23.5534 10.0363C23.9199 10.1892 24.2181 10.3659 24.4669 10.576C24.5796 10.6724 24.6726 10.7664 24.7544 10.864C24.8319 10.9563 24.9012 11.0552 24.9616 11.1594ZM22.928 11.4895C22.7451 11.3843 22.5376 11.3288 22.3262 11.3285C21.8941 11.3285 21.4918 11.5585 21.2764 11.9293C21.1151 12.2063 21.0725 12.5297 21.1559 12.8404C21.2396 13.1503 21.4395 13.4096 21.7191 13.5693C21.9023 13.6745 22.1101 13.73 22.3217 13.7302C22.7543 13.7302 23.156 13.5004 23.3713 13.1296C23.5326 12.8524 23.5753 12.5291 23.4913 12.2191C23.4077 11.9086 23.2076 11.6492 22.928 11.4895Z" fill="#1E231E"/>
<path d="M25.9385 15.0059C26.2025 14.9987 26.4469 14.8902 26.6266 14.7009C26.69 14.6347 26.7546 14.5696 26.8202 14.5056C26.8905 14.4375 26.9626 14.3713 27.0363 14.3068C27.0897 14.2591 27.1443 14.2128 27.2 14.1678C27.2443 14.1309 27.2924 14.0938 27.3402 14.0569C27.6663 13.8119 27.9695 13.6433 28.2771 13.5349C28.4178 13.4859 28.5462 13.4532 28.6728 13.4313C28.9367 13.3857 29.2074 13.3919 29.478 13.4477C29.6039 13.4745 29.7275 13.5115 29.8474 13.5582C29.8756 13.5689 29.9037 13.5801 29.9315 13.5916C29.9159 13.5066 29.9012 13.4215 29.8873 13.3362L29.833 13.0155C29.7523 12.5703 29.7543 12.0684 29.8384 11.5246C29.8131 11.5189 29.7875 11.514 29.7617 11.5095C29.5213 11.4661 29.2775 11.4444 29.0331 11.4444C28.722 11.4444 28.4089 11.48 28.1024 11.5511C28.0002 11.5741 27.9012 11.6035 27.8014 11.6336L27.6298 11.6914C27.5212 11.7293 27.4495 11.7532 27.3788 11.7835C27.0077 11.937 26.6396 12.1445 26.2833 12.4001C25.9144 12.6643 25.5484 12.9861 25.196 13.3556C25.1478 13.4063 25.1042 13.468 25.0593 13.5482C24.9376 13.7648 24.9011 14.0153 24.9567 14.2544C25.0039 14.4486 25.0924 14.6034 25.2358 14.7392C25.4173 14.9107 25.6583 15.0062 25.9089 15.0059H25.9385ZM28.9071 15.1539C28.6956 15.1539 28.4873 15.2096 28.3038 15.3149C27.7262 15.6459 27.5279 16.3817 27.8613 16.9551C28.0766 17.3252 28.479 17.5555 28.9109 17.5555C29.1216 17.5555 29.3302 17.5001 29.5134 17.3948C30.0905 17.0636 30.2897 16.3277 29.9561 15.7538C29.7409 15.3838 29.339 15.1539 28.9071 15.1539Z" fill="#1E231E"/>
<path d="M33.0859 10.1391C32.6573 9.98494 32.2207 9.7324 31.7891 9.38892C31.7725 9.40786 31.755 9.42732 31.7387 9.44674C31.5804 9.63229 31.4391 9.83143 31.3163 10.0418C31.1614 10.3077 31.0364 10.5951 30.9447 10.8956C30.9138 10.9942 30.8898 11.0954 30.8662 11.1962L30.8308 11.3719C30.809 11.4845 30.7951 11.5579 30.7859 11.6325C30.7345 12.0291 30.7311 12.4496 30.7754 12.8848C30.8213 13.3334 30.9189 13.8087 31.0658 14.2967C31.0853 14.3637 31.1167 14.4315 31.165 14.511C31.2921 14.7242 31.4924 14.8807 31.7286 14.9518C31.9235 15.0104 32.0986 15.0115 32.2906 14.9552C32.5429 14.8807 32.7508 14.7127 32.8759 14.4831C33.0008 14.2534 33.0283 13.9897 32.9532 13.7392C32.9268 13.6489 32.9021 13.5616 32.8804 13.4758C32.856 13.381 32.8342 13.2856 32.8149 13.1897C32.8003 13.1191 32.786 13.0494 32.7755 12.9805C32.7647 12.9193 32.7559 12.8547 32.7475 12.7935C32.6981 12.4001 32.7032 12.0549 32.7621 11.7365C32.7896 11.5918 32.825 11.4644 32.8697 11.3447C32.9112 11.2322 32.9624 11.1235 33.0225 11.0197C33.0977 10.891 33.1863 10.7704 33.2868 10.66C33.3707 10.5672 33.4648 10.4798 33.5663 10.3985C33.5898 10.3796 33.6138 10.3614 33.6385 10.3429C33.5483 10.3101 33.4615 10.2777 33.3802 10.2476L33.0859 10.1391ZM35.5368 11.4025C34.8698 11.4025 34.3272 11.9413 34.3272 12.6037C34.3272 13.266 34.8698 13.8048 35.5368 13.8048C36.2036 13.8048 36.746 13.266 36.746 12.6037C36.746 11.9413 36.2036 11.4025 35.5368 11.4025Z" fill="#1E231E"/>
<path d="M35.058 9.74123C35.307 9.73799 35.5433 9.64395 35.7243 9.47637C35.87 9.33947 35.9602 9.1859 36.0074 8.99429C36.0679 8.74053 36.0259 8.47784 35.8885 8.25632C35.7507 8.03309 35.5338 7.8772 35.2777 7.81662C35.1886 7.79557 35.1001 7.77254 35.0121 7.74755C34.917 7.72133 34.8227 7.6926 34.7291 7.6614C34.6612 7.63906 34.5937 7.61531 34.5267 7.59016C34.4674 7.56849 34.4085 7.54546 34.3502 7.5211C33.9842 7.36817 33.6862 7.19104 33.4367 6.98073C33.3236 6.88376 33.2306 6.78975 33.1488 6.69247C33.0719 6.6005 33.0029 6.5023 32.9425 6.39892C32.8673 6.26939 32.8061 6.13236 32.7599 5.99009C32.7211 5.87244 32.6919 5.74729 32.6717 5.61871C32.6674 5.58927 32.6629 5.55919 32.6597 5.52912C32.5861 5.59033 32.5155 5.64815 32.4495 5.70273L32.2056 5.90251C31.8571 6.19436 31.4188 6.44347 30.9026 6.64266C30.911 6.66717 30.9196 6.69124 30.9278 6.71465C31.0085 6.94067 31.1122 7.16267 31.2356 7.3757C31.3896 7.64135 31.5779 7.89279 31.7942 8.12264C31.8653 8.19956 31.9411 8.27032 32.0173 8.34077L32.153 8.45949C32.2325 8.52796 32.2936 8.58021 32.3586 8.62876C32.6769 8.87017 33.0417 9.08341 33.444 9.26377C33.8592 9.448 34.3227 9.60156 34.8205 9.72012C34.8837 9.73476 34.9515 9.74182 35.0351 9.74182L35.058 9.74123ZM34.9751 6.06732C35.5338 6.38798 36.3067 6.17925 36.6266 5.6281C36.9607 5.0543 36.7623 4.31846 36.1844 3.98749C36.0013 3.88228 35.7936 3.82678 35.5821 3.82655C35.15 3.82655 34.7476 4.0564 34.5324 4.42714C34.371 4.70436 34.3285 5.02762 34.4118 5.33826C34.496 5.64815 34.6959 5.9076 34.9751 6.06732Z" fill="#1E231E"/>
<path d="M28.0708 4.5413C28.1511 4.98884 28.1492 5.49081 28.0652 6.03284C28.0902 6.03799 28.1153 6.04282 28.1404 6.04732C28.6829 6.14694 29.256 6.13198 29.8014 6.00569C29.9029 5.98272 30.0026 5.95391 30.1018 5.92324L30.2742 5.86602C30.3764 5.83026 30.4509 5.80469 30.5238 5.77398C30.8958 5.61935 31.2646 5.41172 31.6205 5.15689C31.9864 4.89479 32.3524 4.5735 32.7071 4.20121C32.7543 4.15172 32.7986 4.08976 32.8451 4.00759C32.9659 3.79207 33.0024 3.54169 32.9463 3.30336C32.8999 3.10847 32.8113 2.95384 32.6679 2.81757C32.4861 2.64604 32.2449 2.55054 31.9941 2.55086C31.7012 2.55828 31.4569 2.66665 31.2759 2.85644C31.2136 2.92254 31.1497 2.98715 31.0842 3.05022C31.0132 3.11882 30.9405 3.18565 30.8661 3.25063C30.8129 3.29808 30.7586 3.34424 30.7031 3.38908C30.6545 3.42924 30.605 3.4684 30.5548 3.50653C30.2369 3.74518 29.9331 3.91354 29.626 4.02192C29.486 4.07094 29.3575 4.10361 29.231 4.12552C28.968 4.16944 28.7007 4.16605 28.4249 4.10934C28.2992 4.08257 28.176 4.04554 28.0564 3.99863C28.0282 3.98794 28.0001 3.97678 27.9723 3.96517C27.9895 4.06091 28.0053 4.15326 28.0199 4.23958L28.0708 4.5413ZM29.599 2.24191C30.1769 1.91138 30.3758 1.1751 30.0423 0.601778C29.8272 0.230993 29.4249 0.0012989 28.9921 0.0012989C28.7808 0.00146151 28.5732 0.0569167 28.3903 0.162083C28.1107 0.321803 27.9106 0.581254 27.8271 0.891892C27.7436 1.20194 27.7863 1.52568 27.9477 1.80301C28.2683 2.35384 29.0415 2.56321 29.599 2.24191Z" fill="#1E231E"/>
<path d="M84.1909 3.23597C84.5196 3.23597 84.6507 3.08379 84.6507 2.83389C84.6507 2.58415 84.5196 2.42135 84.1909 2.42135H83.9942V3.23597H84.1909ZM85.0334 4.01788H84.5963L84.2788 3.55076H83.9942V4.01788H83.5897V2.08435H84.2025C84.7822 2.08435 85.0556 2.42135 85.0556 2.82296C85.0556 3.10538 84.9134 3.33385 84.6618 3.45304L85.0334 4.01788ZM85.6676 3.07286C85.6676 2.2254 85.0664 1.65006 84.2462 1.65006C83.4363 1.65006 82.8462 2.2254 82.8462 3.07286C82.8462 3.89841 83.4363 4.46325 84.2462 4.46325C85.0664 4.46325 85.6676 3.89841 85.6676 3.07286ZM82.5176 3.07286C82.5176 2.08435 83.2941 1.36749 84.2462 1.36749C85.2086 1.36749 85.9962 2.08435 85.9962 3.07286C85.9962 4.05071 85.2086 4.76758 84.2462 4.76758C83.2941 4.76758 82.5176 4.05071 82.5176 3.07286Z" fill="#1E231E"/>
</g>
<defs>
<clipPath id="clip0_11_43">
<rect width="86" height="36" fill="white"/>
</clipPath>
</defs>
</svg>
